<svg xmlns="http://www.w3.org/2000/svg" width="22.244" height="22.245" viewBox="0 0 22.244 22.245">
  <path id="Path_5" data-name="Path 5" d="M77.4,2831.308a8.128,8.128,0,0,0-2.7.522,5.683,5.683,0,0,0-3.247,3.258,8.186,8.186,0,0,0-.512,2.7c-.051,1.186-.063,1.565-.058,4.585s.019,3.4.076,4.586a8.151,8.151,0,0,0,.522,2.7,5.689,5.689,0,0,0,3.259,3.247,8.164,8.164,0,0,0,2.7.511c1.187.053,1.565.064,4.585.059s3.4-.02,4.586-.076a8.158,8.158,0,0,0,2.7-.522,5.682,5.682,0,0,0,3.246-3.259,8.147,8.147,0,0,0,.512-2.7c.052-1.187.064-1.566.058-4.586s-.019-3.4-.076-4.584a8.137,8.137,0,0,0-.522-2.7,5.684,5.684,0,0,0-3.259-3.246,8.15,8.15,0,0,0-2.7-.512c-1.186-.052-1.565-.064-4.585-.058s-3.4.019-4.585.076m.13,20.106a6.185,6.185,0,0,1-2.066-.379,3.676,3.676,0,0,1-2.115-2.106,6.181,6.181,0,0,1-.387-2.065c-.055-1.173-.067-1.524-.073-4.494s0-3.321.057-4.494a6.132,6.132,0,0,1,.378-2.065,3.675,3.675,0,0,1,2.107-2.115,6.165,6.165,0,0,1,2.064-.387c1.173-.055,1.524-.067,4.493-.073s3.322,0,4.5.056a6.134,6.134,0,0,1,2.065.379,3.676,3.676,0,0,1,2.115,2.107,6.159,6.159,0,0,1,.387,2.063c.055,1.173.068,1.525.073,4.494s-.005,3.322-.056,4.494a6.134,6.134,0,0,1-.379,2.066,3.675,3.675,0,0,1-2.107,2.115,6.158,6.158,0,0,1-2.063.387c-1.173.055-1.525.068-4.495.073s-3.32,0-4.493-.056m9.067-15.006a1.335,1.335,0,1,0,1.331-1.337,1.334,1.334,0,0,0-1.331,1.337m-10.3,5.956a5.711,5.711,0,1,0,5.7-5.722,5.711,5.711,0,0,0-5.7,5.722m2,0a3.707,3.707,0,1,1,3.714,3.7,3.706,3.706,0,0,1-3.714-3.7" transform="translate(-70.883 -2831.23)" fill="#6f757a"/>
</svg>
